<svg width="30" height="30" viewBox="0 0 30 30" fill="none" xmlns="http://www.w3.org/2000/svg">
<rect x="0.297119" y="0.669922" width="29" height="29" rx="9" fill="#34C759"/>
<path d="M8.13053 12.5036C8.13053 12.3147 8.19453 12.1562 8.32253 12.0282C8.45053 11.9002 8.60876 11.8365 8.7972 11.8369H19.4639C19.6528 11.8369 19.8112 11.9009 19.9392 12.0289C20.0672 12.1569 20.131 12.3151 20.1305 12.5036V13.8369H21.4639V16.5036H20.1305V17.8369C20.1305 18.0258 20.0665 18.1842 19.9385 18.3122C19.8105 18.4402 19.6523 18.504 19.4639 18.5036H8.7972C8.60831 18.5036 8.44987 18.4396 8.32187 18.3116C8.19387 18.1836 8.13009 18.0254 8.13053 17.8369V12.5036ZM14.7972 13.1702V17.1702H18.7972V13.1702H14.7972Z" fill="white"/>
</svg>
