<svg width="30" height="30" viewBox="0 0 30 30" fill="none" xmlns="http://www.w3.org/2000/svg">
<rect x="0.539307" y="0.711914" width="29" height="29" rx="9" fill="#5856D6"/>
<path d="M24.0453 15.1963C24.0453 15.7588 23.5759 16.1994 23.044 16.1994H22.0427L22.0646 21.2057C22.0646 21.29 22.0584 21.3744 22.049 21.4588V21.9619C22.049 22.6525 21.4889 23.2119 20.7974 23.2119H20.2968C20.2623 23.2119 20.2279 23.2119 20.1935 23.2088C20.1497 23.2119 20.1059 23.2119 20.0621 23.2119H19.0452H18.2942C17.6027 23.2119 17.0426 22.6525 17.0426 21.9619V21.2119V19.2119C17.0426 18.6588 16.5952 18.2119 16.0413 18.2119H14.0388C13.485 18.2119 13.0375 18.6588 13.0375 19.2119V21.2119V21.9619C13.0375 22.6525 12.4774 23.2119 11.7859 23.2119H11.035H10.0368C9.98987 23.2119 9.94293 23.2088 9.896 23.2057C9.85845 23.2088 9.8209 23.2119 9.78335 23.2119H9.28272C8.59121 23.2119 8.03112 22.6525 8.03112 21.9619V18.4619C8.03112 18.4338 8.03112 18.4025 8.03425 18.3744V16.1994H7.02984C6.46662 16.1994 6.02856 15.7619 6.02856 15.1963C6.02856 14.915 6.12243 14.665 6.34146 14.4463L14.3642 7.46191C14.5832 7.24316 14.8335 7.21191 15.0526 7.21191C15.2716 7.21191 15.5219 7.27441 15.7097 7.43066L23.7011 14.4463C23.9514 14.665 24.0766 14.915 24.0453 15.1963Z" fill="white"/>
</svg>
