<svg xmlns="http://www.w3.org/2000/svg" xmlns:xlink="http://www.w3.org/1999/xlink" width="48" height="48" version="1.1" viewBox="0 0 48 48"><defs><radialGradient id="serviceInsurance_svg__b" cx="100%" cy="0%" r="141.421%" fx="100%" fy="0%"><stop offset="0%" stop-color="#FFF" stop-opacity=".382"/><stop offset="100%" stop-color="#FFF" stop-opacity="0"/></radialGradient><path id="serviceInsurance_svg__a" d="M14.77 0h18.46C41.389 0 48 6.612 48 14.77v18.46C48 41.389 41.388 48 33.23 48H14.77C6.611 48 0 41.388 0 33.23V14.77C0 6.611 6.612 0 14.77 0z"/></defs><g fill="none" fill-rule="evenodd" stroke="none" stroke-width="1"><g><use fill="#24D7B0" xlink:href="#serviceInsurance_svg__a"/><use fill="url(#serviceInsurance_svg__b)" xlink:href="#serviceInsurance_svg__a"/></g><path fill="#FFF" fill-rule="nonzero" d="M22.866 23.87a2.58 2.58 0 01.822-.143c.265 0 .539.048.822.142v7.492c0 .896-.326 1.67-.977 2.326-.65.654-1.421.981-2.312.981-.89 0-1.661-.327-2.312-.981-.65-.655-.976-1.43-.976-2.326 0-.224.081-.417.244-.58a.789.789 0 01.578-.246c.223 0 .416.082.578.245a.797.797 0 01.244.581c0 .431.167.814.501 1.15.334.336.715.504 1.143.504.428 0 .81-.168 1.144-.504.334-.336.5-.719.5-1.15V23.87zm11.495.258c.01.017.013.047.014.09 0 .112-.04.209-.122.29a.393.393 0 01-.289.123.468.468 0 01-.296-.129c-.42-.396-.817-.693-1.194-.891-.377-.198-.814-.297-1.31-.297-.583 0-1.13.16-1.645.478a4.59 4.59 0 00-1.323 1.253c-.06.086-.135.207-.225.361-.09.156-.152.259-.186.31-.094.147-.214.22-.36.22-.154 0-.278-.073-.372-.22a6.835 6.835 0 01-.186-.31 5.52 5.52 0 00-.225-.361 4.614 4.614 0 00-1.317-1.253 3.034 3.034 0 00-1.638-.478c-.582 0-1.128.16-1.638.478-.51.318-.948.736-1.316 1.253a5.7 5.7 0 00-.225.361 7.14 7.14 0 01-.186.31c-.094.147-.219.22-.373.22-.145 0-.265-.073-.36-.22a7.244 7.244 0 01-.186-.31 5.594 5.594 0 00-.225-.361 4.582 4.582 0 00-1.323-1.253 3.067 3.067 0 00-1.644-.478c-.496 0-.933.099-1.31.297-.377.198-.775.495-1.195.891a.468.468 0 01-.295.13.394.394 0 01-.289-.123.398.398 0 01-.11-.381A9.16 9.16 0 0115.23 20a10.507 10.507 0 013.827-2.641 12.324 12.324 0 014.631-.879c1.199 0 2.374.173 3.526.517 1.152.345 2.207.833 3.166 1.466a9.593 9.593 0 012.499 2.416 9.08 9.08 0 011.483 3.249zm-9.851-8.035c-.36-.017-.634-.026-.822-.026-.189 0-.463.009-.822.026v-1.266c0-.224.08-.418.244-.582a.788.788 0 01.578-.245c.222 0 .415.082.578.245a.797.797 0 01.244.582v1.266z"/></g></svg>