<svg width="30" height="30" viewBox="0 0 30 30" fill="none" xmlns="http://www.w3.org/2000/svg">
<rect x="0.918213" y="0.785156" width="29" height="29" rx="9" fill="#FF3B30"/>
<path d="M8.90571 16.5136L14.5526 21.7855C14.787 22.0043 15.0963 22.1261 15.4182 22.1261C15.7401 22.1261 16.0495 22.0043 16.2838 21.7855L21.9307 16.5136C22.8807 15.6293 23.4182 14.3886 23.4182 13.0918V12.9105C23.4182 10.7261 21.8401 8.86364 19.687 8.50427C18.262 8.26677 16.812 8.73239 15.7932 9.75114L15.4182 10.1261L15.0432 9.75114C14.0245 8.73239 12.5745 8.26677 11.1495 8.50427C8.99634 8.86364 7.41821 10.7261 7.41821 12.9105V13.0918C7.41821 14.3886 7.95571 15.6293 8.90571 16.5136Z" fill="white"/>
</svg>
