<svg height="32px" width="32px" version="1.1" viewBox="0 0 32 32" xmlns="http://www.w3.org/2000/svg"><path d="M5 16C5 9.925 9.925 5 16 5c6.076 0 11 4.925 11 11 0 6.076-4.924 11-11 11-6.075 0-11-4.924-11-11zm15.125-.489a.458.458 0 0 0 .458-.458v-.644a.458.458 0 0 0-.458-.458h-.209a.446.446 0 0 1-.42-.596c.043-.12.074-.223.094-.311.072-.318.108-.621.108-.91 0-1.134-.316-1.996-.948-2.585-.631-.588-1.531-.882-2.699-.882-.72 0-1.325.102-1.817.308-.494.205-.89.482-1.193.83-.302.35-.519.753-.651 1.207a5.498 5.498 0 0 0-.16.973c0 .253.206.458.46.458h.948c.237 0 .435-.18.456-.416.02-.213.044-.377.073-.49.067-.27.18-.496.336-.681.156-.186.36-.329.611-.428.25-.1.564-.15.937-.15.632 0 1.085.158 1.36.473.275.316.413.765.413 1.348 0 .29-.03.594-.093.917a3.61 3.61 0 0 1-.214.65.458.458 0 0 1-.424.285h-5.218a.458.458 0 0 0-.458.458v.644c0 .253.205.458.458.458h8.25zm0 2.485a.458.458 0 0 0 .458-.458v-.59a.458.458 0 0 0-.458-.46h-8.25a.458.458 0 0 0-.458.46v.59c0 .253.205.458.458.458h.178a.38.38 0 0 1 .342.544c-.07.145-.12.271-.153.38a3.585 3.585 0 0 0-.153 1.04c0 .55.09 1.035.27 1.454.18.42.44.773.78 1.057.338.284.748.5 1.227.644.478.146 1.02.218 1.624.218.55 0 1.069-.07 1.558-.212a3.552 3.552 0 0 0 1.278-.66 3.13 3.13 0 0 0 .861-1.136c.107-.234.194-.605.26-1.115a.458.458 0 0 0-.455-.517h-.945a.458.458 0 0 0-.456.405c-.03.261-.068.452-.115.572a1.608 1.608 0 0 1-.433.642 1.667 1.667 0 0 1-.677.355 3.277 3.277 0 0 1-.876.109c-.7 0-1.212-.158-1.538-.475-.326-.316-.489-.758-.489-1.325 0-.192.007-.371.021-.54.013-.167.042-.33.086-.49.044-.159.105-.314.184-.47.034-.067.09-.16.17-.277a.458.458 0 0 1 .38-.203h5.321z" fill="#8DC641" fill-rule="evenodd" stroke="none" stroke-width="1"></path></svg>
