<svg width="30" height="30" viewBox="0 0 30 30" fill="none" xmlns="http://www.w3.org/2000/svg">
<rect x="0.78125" y="0.214844" width="29" height="29" rx="9" fill="#34C759"/>
<path d="M15.8146 14.0482V10.0482H17.1479V11.7816L20.4812 8.44824L21.4146 9.38158L18.0813 12.7149H19.8146V14.0482H15.8146ZM20.5813 20.7149C19.1479 20.7149 17.7508 20.3954 16.3899 19.7562C15.029 19.1171 13.8235 18.2727 12.7733 17.2229C11.723 16.1731 10.8786 14.9676 10.2399 13.6062C9.60125 12.2449 9.28169 10.8478 9.28125 9.41491C9.28125 9.21491 9.34792 9.04824 9.48125 8.91491C9.61458 8.78158 9.78125 8.71491 9.98125 8.71491H12.6813C12.8368 8.71491 12.9757 8.76491 13.0979 8.86491C13.2201 8.96491 13.2924 9.09269 13.3146 9.24824L13.7479 11.5816C13.7701 11.7371 13.7673 11.8789 13.7393 12.0069C13.7113 12.1349 13.6475 12.2487 13.5479 12.3482L11.9479 13.9816C12.4146 14.7816 12.9979 15.5316 13.6979 16.2316C14.3979 16.9316 15.1701 17.5371 16.0146 18.0482L17.5813 16.4816C17.6813 16.3816 17.8119 16.3067 17.9733 16.2569C18.1346 16.2071 18.2928 16.1931 18.4479 16.2149L20.7479 16.6816C20.9035 16.7149 21.0312 16.79 21.1313 16.9069C21.2312 17.0238 21.2812 17.1598 21.2812 17.3149V20.0149C21.2812 20.2149 21.2146 20.3816 21.0813 20.5149C20.9479 20.6482 20.7813 20.7149 20.5813 20.7149Z" fill="white"/>
</svg>
