<svg width="30" height="30" viewBox="0 0 30 30" fill="none" xmlns="http://www.w3.org/2000/svg">
<rect x="0.675781" y="0.669922" width="29" height="29" rx="9" fill="#0A84FF"/>
<path fill-rule="evenodd" clip-rule="evenodd" d="M20.4747 18.0503C20.4319 17.8144 20.4608 17.5711 20.5576 17.3517C20.6498 17.1366 20.8029 16.9532 20.998 16.824C21.1931 16.6947 21.4217 16.6254 21.6558 16.6245H21.7213C22.107 16.6245 22.477 16.4713 22.7498 16.1985C23.0225 15.9257 23.1758 15.5557 23.1758 15.1699C23.1758 14.7842 23.0225 14.4142 22.7498 14.1414C22.477 13.8686 22.107 13.7154 21.7213 13.7154H21.5976C21.3636 13.7145 21.1349 13.6451 20.9398 13.5159C20.7447 13.3867 20.5916 13.2032 20.4994 12.9881V12.9299C20.4026 12.7106 20.3738 12.4672 20.4165 12.2313C20.4593 11.9954 20.5718 11.7777 20.7394 11.6063L20.783 11.5627C20.9183 11.4276 21.0256 11.2671 21.0988 11.0906C21.172 10.914 21.2096 10.7247 21.2096 10.5336C21.2096 10.3424 21.172 10.1531 21.0988 9.97656C21.0256 9.79998 20.9183 9.63956 20.783 9.50447C20.6479 9.36923 20.4876 9.26195 20.311 9.18875C20.1344 9.11555 19.9452 9.07787 19.754 9.07787C19.5628 9.07787 19.3735 9.11555 19.197 9.18875C19.0204 9.26195 18.86 9.36923 18.7249 9.50447L18.6812 9.54811C18.5098 9.71577 18.2921 9.82824 18.0562 9.87102C17.8203 9.9138 17.577 9.88492 17.3576 9.78811C17.1425 9.69592 16.959 9.54284 16.8299 9.34772C16.7006 9.1526 16.6313 8.92395 16.6303 8.68993V8.62447C16.6303 8.2387 16.4771 7.86873 16.2043 7.59595C15.9315 7.32317 15.5615 7.16992 15.1758 7.16992C14.79 7.16992 14.42 7.32317 14.1472 7.59595C13.8745 7.86873 13.7212 8.2387 13.7212 8.62447V8.74811C13.7203 8.98213 13.651 9.21078 13.5217 9.4059C13.3925 9.60102 13.2091 9.7541 12.994 9.84629H12.9358C12.7164 9.9431 12.4731 9.97198 12.2372 9.9292C12.0012 9.88642 11.7835 9.77395 11.6122 9.60629L11.5685 9.56266C11.4334 9.42742 11.273 9.32013 11.0964 9.24693C10.9198 9.17373 10.7306 9.13605 10.5394 9.13605C10.3483 9.13605 10.159 9.17373 9.98241 9.24693C9.80583 9.32013 9.64541 9.42742 9.51033 9.56266C9.37509 9.69774 9.2678 9.85816 9.1946 10.0347C9.12141 10.2113 9.08373 10.4006 9.08373 10.5917C9.08373 10.7829 9.12141 10.9722 9.1946 11.1488C9.2678 11.3253 9.37509 11.4857 9.51033 11.6208L9.55396 11.6645C9.72163 11.8359 9.8341 12.0536 9.87687 12.2895C9.91965 12.5254 9.89077 12.7688 9.79396 12.9881C9.71085 13.2141 9.56167 13.4099 9.36582 13.5499C9.16996 13.69 8.93651 13.768 8.69578 13.7735H8.63033C8.24456 13.7735 7.87458 13.9268 7.60181 14.1996C7.32903 14.4724 7.17578 14.8423 7.17578 15.2281C7.17578 15.6139 7.32903 15.9839 7.60181 16.2566C7.87458 16.5294 8.24456 16.6827 8.63033 16.6827H8.75397C8.98799 16.6836 9.21664 16.753 9.41176 16.8821C9.60688 17.0114 9.75996 17.1948 9.85214 17.41C9.94895 17.6293 9.97784 17.8726 9.93506 18.1086C9.89228 18.3445 9.77981 18.5622 9.61214 18.7336L9.56851 18.7772C9.43327 18.9123 9.32599 19.0727 9.25278 19.2493C9.17959 19.4259 9.14191 19.6152 9.14191 19.8063C9.14191 19.9974 9.17959 20.1867 9.25278 20.3633C9.32599 20.5399 9.43327 20.7003 9.56851 20.8354C9.7036 20.9706 9.86402 21.0779 10.0406 21.1511C10.2172 21.2243 10.4065 21.262 10.5976 21.262C10.7887 21.262 10.978 21.2243 11.1546 21.1511C11.3312 21.0779 11.4916 20.9706 11.6267 20.8354L11.6703 20.7917C11.8417 20.6241 12.0594 20.5116 12.2954 20.4688C12.5313 20.426 12.7746 20.4549 12.994 20.5518C13.22 20.6349 13.4157 20.7841 13.5558 20.9799C13.6959 21.1757 13.7738 21.4092 13.7794 21.65V21.7154C13.7794 22.1012 13.9327 22.4712 14.2055 22.7439C14.4782 23.0167 14.8482 23.17 15.234 23.17C15.6197 23.17 15.9897 23.0167 16.2625 22.7439C16.5353 22.4712 16.6885 22.1012 16.6885 21.7154V21.5917C16.6895 21.3577 16.7588 21.1291 16.888 20.934C17.0173 20.7388 17.2007 20.5858 17.4158 20.4936C17.6351 20.3968 17.8785 20.3679 18.1144 20.4107C18.3503 20.4534 18.568 20.5659 18.7394 20.7336L18.783 20.7772C18.9181 20.9125 19.0786 21.0197 19.2551 21.0929C19.4317 21.1661 19.621 21.2038 19.8121 21.2038C20.0033 21.2038 20.1926 21.1661 20.3692 21.0929C20.5457 21.0197 20.7062 20.9125 20.8413 20.7772C20.9765 20.6421 21.0837 20.4817 21.157 20.3051C21.2302 20.1285 21.2679 19.9393 21.2679 19.7481C21.2679 19.5569 21.2302 19.3677 21.157 19.1911C21.0837 19.0145 20.9765 18.8541 20.8413 18.7191L20.7976 18.6754C20.6299 18.504 20.5175 18.2863 20.4747 18.0503ZM17.3576 15.1697C17.3576 16.3747 16.3807 17.3515 15.1757 17.3515C13.9707 17.3515 12.9939 16.3747 12.9939 15.1697C12.9939 13.9647 13.9707 12.9879 15.1757 12.9879C16.3807 12.9879 17.3576 13.9647 17.3576 15.1697Z" fill="white"/>
</svg>
