<svg xmlns="http://www.w3.org/2000/svg" xmlns:xlink="http://www.w3.org/1999/xlink" width="48" height="48" version="1.1" viewBox="0 0 48 48"><defs><radialGradient id="serviceTickets_svg__b" cx="100%" cy="0%" r="141.421%" fx="100%" fy="0%"><stop offset="0%" stop-color="#FFF" stop-opacity=".382"/><stop offset="100%" stop-color="#FFF" stop-opacity="0"/></radialGradient><path id="serviceTickets_svg__a" d="M14.77 0h18.46C41.389 0 48 6.612 48 14.77v18.46C48 41.389 41.388 48 33.23 48H14.77C6.611 48 0 41.388 0 33.23V14.77C0 6.611 6.612 0 14.77 0z"/></defs><g fill="none" fill-rule="evenodd" stroke="none" stroke-width="1"><g><use fill="#5856D6" xlink:href="#serviceTickets_svg__a"/><use fill="url(#serviceTickets_svg__b)" style="mix-blend-mode:lighten" xlink:href="#serviceTickets_svg__a"/></g><path fill="#FFF" fill-rule="nonzero" d="M32.107 24.473c-.008-.003-.017-.004-.025-.008l-1.704-2.411 1.564.687a.848.848 0 00.433 1.112c.035.016.071.025.107.035l-.277.64c-.032-.019-.063-.04-.098-.055zm-18.673.458A.847.847 0 0013 23.82l.268-.62a.834.834 0 001.104-.437.847.847 0 00-.433-1.112l.268-.62a.834.834 0 001.104-.436.847.847 0 00-.434-1.113l.268-.62a.834.834 0 001.104-.436.847.847 0 00-.433-1.113l.268-.62a.834.834 0 001.104-.436l2.688 1.181-.005.004-.547.393-.301.216.215.304a.47.47 0 01-.11.658.469.469 0 01-.653-.11l-.214-.304-.302.216-.547.393-.301.216.215.305c.15.211.1.507-.11.658l-.302.216.215.304 5.792 8.195-9.487-4.17zm5.909-5.614a.849.849 0 00.196-1.178l.547-.392a.834.834 0 00.683.354c.13 0 .259-.04.38-.104.035-.018.072-.03.106-.053a.827.827 0 00.206-.217.845.845 0 00-.01-.962l.547-.392a.834.834 0 001.169.198.85.85 0 00.196-1.179l.546-.392a.834.834 0 001.17.198l3.802 5.384.418.59.417.591 1.883 2.664.26.367.493.698.018.026.132.187 1.913 2.707a.85.85 0 00-.196 1.178c.022.032.049.058.074.085l-.564.406c-.018-.033-.034-.067-.056-.098a.834.834 0 00-1.169-.198.85.85 0 00-.196 1.178c.022.032.048.058.074.085l-.565.406c-.017-.033-.033-.067-.055-.098a.834.834 0 00-1.17-.198.85.85 0 00-.195 1.178c.022.031.048.058.074.085l-.565.406c-.017-.034-.033-.067-.055-.098a.834.834 0 00-1.17-.198.85.85 0 00-.196 1.178c.022.032.049.058.074.085l-.564.406c-.018-.033-.033-.067-.056-.098a.834.834 0 00-1.169-.198l-2.354-3.331-.417-.59-.418-.592-6.15-8.702a.85.85 0 00.196-1.178l.547-.392a.834.834 0 001.169.198z"/></g></svg>