<svg width="30" height="30" viewBox="0 0 30 30" fill="none" xmlns="http://www.w3.org/2000/svg">
<rect x="0.160278" y="0.214844" width="29" height="29" rx="9" fill="#8E8E93"/>
<g clip-path="url(#clip0_245_277)">
<path d="M11.8817 7.26797L11.6564 7.71484H8.65243C8.09858 7.71484 7.65112 8.16172 7.65112 8.71484C7.65112 9.26797 8.09858 9.71484 8.65243 9.71484H20.6682C21.222 9.71484 21.6695 9.26797 21.6695 8.71484C21.6695 8.16172 21.222 7.71484 20.6682 7.71484H17.6642L17.4389 7.26797C17.27 6.92734 16.9226 6.71484 16.544 6.71484H12.7766C12.398 6.71484 12.0506 6.92734 11.8817 7.26797ZM20.6682 10.7148H8.65243L9.3158 21.3086C9.36587 22.0992 10.023 22.7148 10.8146 22.7148H18.506C19.2976 22.7148 19.9547 22.0992 20.0048 21.3086L20.6682 10.7148Z" fill="white"/>
</g>
<defs>
<clipPath id="clip0_245_277">
<rect width="14.0183" height="16" fill="white" transform="translate(7.65112 6.71484)"/>
</clipPath>
</defs>
</svg>
